<svg xmlns="http://www.w3.org/2000/svg" 
preserveAspectRatio="xMidYMid meet" 
fill="currentColor" 
viewBox="0 0 24 24"
class="bk-icon-streamline-share"><path d="M17.25 9h1.5a.75.75 0 0 1 .75.75v12a.75.75 0 0 1-.75.75H5.25a.75.75 0 0 1-.75-.75v-12A.75.75 0 0 1 5.25 9h1.5a.75.75 0 0 0 0-1.5h-1.5A2.25 2.25 0 0 0 3 9.75v12A2.25 2.25 0 0 0 5.25 24h13.5A2.25 2.25 0 0 0 21 21.75v-12a2.25 2.25 0 0 0-2.25-2.25h-1.5a.75.75 0 0 0 0 1.5zm-6-8.25v10.5a.75.75 0 0 0 1.5 0V.75a.75.75 0 0 0-1.5 0zM8.78 5.03l3.75-3.75h-1.06l3.75 3.75a.75.75 0 1 0 1.06-1.06L12.53.22a.75.75 0 0 0-1.06 0L7.72 3.97a.75.75 0 0 0 1.06 1.06z"></path></svg>