<svg xmlns="http://www.w3.org/2000/svg" 
preserveAspectRatio="xMidYMid meet" 
fill="currentColor" 
viewBox="0 0 24 24"
class="bk-icon-streamline-chart"><path d="M.75 22.5h22.5a.75.75 0 0 0 0-1.5H.75a.75.75 0 0 0 0 1.5zM6 10.5H3A1.5 1.5 0 0 0 1.5 12v9.75c0 .414.336.75.75.75h4.5a.75.75 0 0 0 .75-.75V12A1.5 1.5 0 0 0 6 10.5zM6 12v9.75l.75-.75h-4.5l.75.75V12h3zm7.5-10.5h-3A1.5 1.5 0 0 0 9 3v18.75c0 .414.336.75.75.75h4.5a.75.75 0 0 0 .75-.75V3a1.5 1.5 0 0 0-1.5-1.5zm0 1.5v18.75l.75-.75h-4.5l.75.75V3h3zM21 6h-3a1.5 1.5 0 0 0-1.5 1.5v14.25c0 .414.336.75.75.75h4.5a.75.75 0 0 0 .75-.75V7.5A1.5 1.5 0 0 0 21 6zm0 1.5v14.25l.75-.75h-4.5l.75.75V7.5h3z"></path></svg>