<svg xmlns="http://www.w3.org/2000/svg" 
preserveAspectRatio="xMidYMid meet" 
fill="currentColor" 
viewBox="0 0 24 24"  
class="bk-icon-streamline-list"><path d="M4.5 2.998a1.5 1.5 0 1 1-3 0 1.5 1.5 0 0 1 3 0zm1.5 0a3 3 0 1 0-6 0 3 3 0 0 0 6 0zm-1.5 9a1.5 1.5 0 1 1-3 0 1.5 1.5 0 0 1 3 0zm1.5 0a3 3 0 1 0-6 0 3 3 0 0 0 6 0zm-1.5 9a1.5 1.5 0 1 1-3 0 1.5 1.5 0 0 1 3 0zm1.5 0a3 3 0 1 0-6 0 3 3 0 0 0 6 0zm2.25-16.5h15a.75.75 0 0 0 0-1.5h-15a.75.75 0 0 0 0 1.5zm0 9h15a.75.75 0 0 0 0-1.5h-15a.75.75 0 0 0 0 1.5zm0 9h15a.75.75 0 0 0 0-1.5h-15a.75.75 0 0 0 0 1.5z"></path></svg>