<svg xmlns="http://www.w3.org/2000/svg" 
preserveAspectRatio="xMidYMid meet" 
fill="currentColor" 
viewBox="0 0 24 24"
class="bk-icon-streamline-rocket"><path d="M22.417.822l-2.158.24a8.25 8.25 0 0 0-4.922 2.366L5.53 13.235a.75.75 0 0 0 0 1.06l4.24 4.242a.75.75 0 0 0 1.06 0l9.81-9.807a8.244 8.244 0 0 0 2.365-4.922l.24-2.158a.75.75 0 0 0-.828-.828zm.166 1.49l-.828-.828-.24 2.158a6.744 6.744 0 0 1-1.936 4.027l-9.81 9.808h1.062l-4.24-4.242v1.06l9.806-9.807a6.75 6.75 0 0 1 4.028-1.936l2.158-.24zM6.297 13.053l-3.622-1.208v.002l.232-.233a5.25 5.25 0 0 1 5.373-1.269l1.255.419-.293-1.242-3.712 3.713.767-.181zm-.474 1.423c.27.09.566.02.767-.18l3.712-3.714a.75.75 0 0 0-.293-1.242l-1.255-.418a6.75 6.75 0 0 0-6.907 1.632l-.232.232a1.498 1.498 0 0 0 .587 2.483l3.62 1.207zm.474-1.423l-3.622-1.208v.002l.232-.233a5.25 5.25 0 0 1 5.373-1.269l1.255.419-.293-1.242-3.712 3.713.767-.181zm-.474 1.423c.27.09.566.02.767-.18l3.712-3.714a.75.75 0 0 0-.293-1.242l-1.255-.418a6.75 6.75 0 0 0-6.907 1.632l-.232.232a1.498 1.498 0 0 0 .587 2.483l3.62 1.207zm3.766 3.768l1.207 3.622a1.499 1.499 0 0 0 2.484.586l.231-.23a6.75 6.75 0 0 0 1.632-6.91l-.416-1.249a.75.75 0 0 0-1.242-.294L9.77 17.476a.75.75 0 0 0-.181.768zm1.422-.474l-.181.768 3.715-3.707-1.242-.294.416 1.25a5.25 5.25 0 0 1-1.267 5.373l-.232.23-.002.002h.002L11.01 17.77zm-1.422.474l1.207 3.622a1.499 1.499 0 0 0 2.484.586l.231-.23a6.75 6.75 0 0 0 1.632-6.91l-.416-1.249a.75.75 0 0 0-1.242-.294L9.77 17.476a.75.75 0 0 0-.181.768zm1.422-.474l-.181.768 3.715-3.707-1.242-.294.416 1.25a5.25 5.25 0 0 1-1.267 5.373l-.232.23-.002.002h.002L11.01 17.77zm-3.982.769c0 .397-.157.778-.439 1.059-.11.11-.406.286-.837.486a18.53 18.53 0 0 1-1.462.586 41.297 41.297 0 0 1-2.674.858l.925.925c.046-.165.132-.457.248-.834.193-.628.399-1.256.609-1.84.205-.569.403-1.064.587-1.463.2-.43.376-.727.484-.835.259-.259.6-.414.964-.438a.75.75 0 1 0-.098-1.496 2.996 2.996 0 0 0-1.926.873c-.266.266-.516.685-.785 1.266-.205.444-.419.978-.637 1.585a42.8 42.8 0 0 0-.89 2.776.75.75 0 0 0 .925.925 42.859 42.859 0 0 0 2.777-.89c.606-.219 1.14-.432 1.582-.637.581-.269 1.001-.518 1.268-.786.564-.561.88-1.325.879-2.122a.75.75 0 0 0-1.5.002z"></path></svg>