<svg xmlns="http://www.w3.org/2000/svg" 
preserveAspectRatio="xMidYMid meet" 
fill="currentColor" 
viewBox="0 0 24 24" 
class="bk-icon-streamline-email"><path d="M22.5 12v6a.75.75 0 0 1-.75.75H2.25A.75.75 0 0 1 1.5 18V6a.75.75 0 0 1 .75-.75h19.5a.75.75 0 0 1 .75.75v6zm1.5 0V6a2.25 2.25 0 0 0-2.25-2.25H2.25A2.25 2.25 0 0 0 0 6v12a2.25 2.25 0 0 0 2.25 2.25h19.5A2.25 2.25 0 0 0 24 18v-6zm-8.822-1.474l3.813 3.525a.75.75 0 1 0 1.018-1.102l-3.813-3.525a.75.75 0 1 0-1.018 1.102zM7.804 9.424L3.99 12.95a.75.75 0 1 0 1.018 1.102l3.813-3.525a.75.75 0 1 0-1.018-1.102zm14.65-5.027l-9.513 6.56a1.656 1.656 0 0 1-1.882 0l-9.513-6.56A.75.75 0 1 0 .694 5.63l9.513 6.56a3.156 3.156 0 0 0 3.586 0l9.513-6.56a.75.75 0 1 0-.852-1.234z"></path></svg>