<svg xmlns="http://www.w3.org/2000/svg" viewBox="0 0 96 96" fill="#a2a2a2" width="40px" ><path d="M78.25 45.75h-5.5c-1.65 0-2.75 1.1-2.75 2.75v8.25H26V48.5c0-1.65-1.1-2.75-2.75-2.75h-5.5c-1.65 0-2.75 1.1-2.75 2.75v19.25c0 1.65 1.1 2.75 2.75 2.75h2.75v2.75c0 1.65 1.1 2.75 2.75 2.75S26 74.9 26 73.25V70.5h44v2.75C70 74.9 71.1 76 72.75 76s2.75-1.1 2.75-2.75V70.5h2.75c1.65 0 2.75-1.1 2.75-2.75V48.5c0-1.65-1.1-2.75-2.75-2.75z"></path><path d="M45.25 51.25V21h-22c-1.65 0-2.75 1.1-2.75 2.75v16.5h8.25c1.65 0 2.75 1.1 2.75 2.75v8.25h13.75zm30.25-27.5c0-1.65-1.1-2.75-2.75-2.75h-22v30.25H64.5V43c0-1.65 1.1-2.75 2.75-2.75h8.25v-16.5z"></path></svg>